<?xml version="1.0" standalone="no"?>
<!DOCTYPE svg PUBLIC "-//W3C//DTD SVG 20010904//EN"
 "http://www.w3.org/TR/2001/REC-SVG-20010904/DTD/svg10.dtd">
<svg version="1.0" xmlns="http://www.w3.org/2000/svg"
 width="500.000000pt" height="500.000000pt" viewBox="0 0 500.000000 500.000000"
 preserveAspectRatio="xMidYMid meet">

<g transform="translate(0.000000,500.000000) scale(0.100000,-0.100000)"
fill="#000000" stroke="none">
<path d="M2187 4834 c-178 -38 -236 -81 -627 -469 -214 -212 -345 -334 -362
-339 -34 -8 -64 4 -126 48 -95 69 -201 85 -306 45 -163 -60 -246 -263 -174
-421 44 -95 176 -206 307 -258 216 -85 489 -60 670 62 28 20 209 189 401 377
372 364 366 359 430 326 37 -19 50 -43 50 -91 0 -37 -28 -66 -1008 -1049 -758
-759 -1017 -1025 -1044 -1071 -156 -258 -129 -620 61 -837 87 -99 157 -155
253 -200 114 -54 183 -70 313 -69 158 0 270 31 394 109 37 23 475 454 1281
1259 1183 1181 1227 1224 1262 1224 21 0 48 -5 61 -11 42 -19 60 -85 36 -132
-6 -12 -458 -470 -1004 -1017 -646 -647 -1005 -1014 -1028 -1050 -19 -30 -43
-76 -55 -101 -73 -167 -71 -416 4 -586 71 -160 227 -312 391 -381 164 -69 408
-68 568 3 112 49 174 102 505 430 214 212 345 334 362 339 34 8 64 -4 126 -48
64 -47 121 -66 193 -66 121 0 226 66 280 176 42 85 45 183 7 266 -44 95 -176
206 -307 258 -172 67 -388 66 -560 -4 -66 -27 -164 -90 -201 -131 -14 -15
-168 -167 -343 -337 l-318 -311 -42 6 c-56 8 -87 43 -87 100 l0 41 1008 1011
c758 759 1017 1025 1044 1071 103 171 131 417 68 604 -64 190 -204 349 -383
434 -113 53 -182 69 -312 68 -158 0 -270 -31 -394 -109 -37 -23 -474 -453
-1281 -1259 -1183 -1182 -1227 -1224 -1262 -1224 -20 0 -48 5 -61 11 -42 19
-60 85 -36 132 6 12 458 470 1004 1017 646 647 1005 1014 1028 1050 75 121
109 240 109 390 0 211 -71 379 -224 527 -143 139 -307 204 -511 202 -51 0
-123 -7 -160 -15z"/>
</g>
</svg>
